# xmcd
#
# Track frame offsets: 
#        150
#        13757
#        26585
#        46745
#        101820
#        114652
#        129002
#        142025
#        156805
#        172405
#        186215
#        199495
#        211622
#        232187
#        248450
#
# Disc length: 3527 seconds
#
# Revision: 0
# Processed by: cddbd v1.5.2PL0 Copyright (c) Steve Scherf et al.
# Submitted via: ExactAudioCopy v0.95b3
#
DISCID=d10dc50f
DTITLE=Sly and The Family Stone  - Dance To The Music  FLAC
DYEAR=1900
DGENRE=
TTITLE0=Dance To The Music
TTITLE1=Higher
TTITLE2=I Ain't Got Nobody (For Real)
TTITLE3=Dance To The Medley: Music Is Alive, Dance In, Music Lover
TTITLE4=Ride The Rhythm
TTITLE5=Color Me True
TTITLE6=Are You Ready
TTITLE7=Don't Burn Baby
TTITLE8=I'll Never Fall In Love Again
TTITLE9=Dance To The Music
TTITLE10=Higher
TTITLE11=Soul Clappin'
TTITLE12=We Love All
TTITLE13=I Can't Turn You Loose
TTITLE14=Never Do Your Woman Wrong
EXTD=
EXTT0=
EXTT1=
EXTT2=
EXTT3=
EXTT4=
EXTT5=
EXTT6=
EXTT7=
EXTT8=
EXTT9=
EXTT10=
EXTT11=
EXTT12=
EXTT13=
EXTT14=
PLAYORDER=
